# xmcd
#
# Track frame offsets:
#	150
#	19293
#	36243
#	56643
#	57243
#	72618
#	95643
#
# Disc length: 1537 seconds
#
# Revision: 1
# Processed by: cddbd v1.5.2PL0 Copyright (c) Steve Scherf et al.
# Submitted via: audiograbber 1.83.01
#
DISCID=6605ff07
DTITLE=True Strays - Wher The Wild Things Hide and Hunt
DYEAR=2018
DGENRE=Blues
TTITLE0=Oh My Love
TTITLE1=My Darling
TTITLE2=Roll On
TTITLE3=Interlude
TTITLE4=Heal The Haunting
TTITLE5=Before Now
TTITLE6=Since I Was a Boy
EXTD=
EXTT0=
EXTT1=
EXTT2=
EXTT3=
EXTT4=
EXTT5=
EXTT6=
PLAYORDER=
